<svg id="Layer_1" data-name="Layer 1" xmlns="http://www.w3.org/2000/svg" viewBox="0 0 400 300" width="406" height="306" class="illustration styles_illustrationTablet__1DWOa"><title>_</title><path d="M112.51,65C83,75.86,61.17,103.51,56.86,137c-3.63,28.17,5,59.31,56.14,68.18,99.41,17.27,192.51,22.19,216.28-24.39s16.45-126.35-34-131.51C255.18,45.12,170.06,43.67,112.51,65Z" fill="#e6e6e6" opacity="0.3"></path><rect x="71.31" y="95.66" width="71.25" height="45.4" fill="#e6e6e6"></rect><rect x="85.36" y="122.21" width="9.66" height="9.66" opacity="0.08"></rect><rect x="101.65" y="111.83" width="9.66" height="20.05" opacity="0.08"></rect><rect x="118.83" y="104.85" width="9.66" height="27.03" opacity="0.08"></rect><path d="M139,238.36v12.36c0,4.42,27.43,8,61.27,8s61.28-3.58,61.28-8V238.36Z" fill="#ccc"></path><ellipse cx="200.24" cy="238.36" rx="61.27" ry="8" fill="#e6e6e6"></ellipse><path d="M211.07,190.53s3.22,15.91,3.17,19.82l10.09-1.08s.2-17.65-.93-21.4Z" fill="#7068fc"></path><path d="M211.07,190.53s3.22,15.91,3.17,19.82l10.09-1.08s.2-17.65-.93-21.4Z" fill="#fff" opacity="0.46"></path><path d="M210.45,191.6a132.09,132.09,0,0,0,14.7-2.54,234.39,234.39,0,0,0-4.78-35.68l-22.23-1.51A218.68,218.68,0,0,1,210.45,191.6Z" fill="#24285b"></path><path d="M181.92,191.76s-1.37,16.17-2.52,19.91l10,1.8s5.14-16.89,5.1-20.81Z" fill="#7068fc"></path><path d="M181.92,191.76s-1.37,16.17-2.52,19.91l10,1.8s5.14-16.89,5.1-20.81Z" fill="#fff" opacity="0.46"></path><path d="M181.41,229.77s.83,4.13,4,4.35,4.05,3.31,1.21,4.16-10.24-2.7-10.24-2.7l.18-5.81Z" fill="#24285b"></path><path d="M181,192.61a131,131,0,0,0,14.82,1.68,233,233,0,0,0,5.41-35.58L180.34,151A219.19,219.19,0,0,1,181,192.61Z" fill="#24285b"></path><path d="M221.57,150.92s-.54,1.08-1.45,2.75c-2.62,4.92-8.26,15-12,18.13a9.15,9.15,0,0,1-3.51,1.95,5.37,5.37,0,0,1-4.93-1c-.67-11.22-15.39-19.63-18.71-21.39l-.66-.34,12.06,0Z" fill="#7068fc"></path><path d="M191,213.25s-11.5-3.88-12.43-2.73-2.37,23.07-2.37,23.07,4.74-2.52,6.75-1.37C183,232.22,189.46,218.57,191,213.25Z" fill="#7068fc"></path><path d="M222.06,230.13s1.32,3.49,4.49,3.71,4,3.3,1.21,4.15-10.24-2.7-10.24-2.7l.18-5.8Z" fill="#24285b"></path><path d="M225.85,208.6s-12.12-.5-12.7.87,4.19,22.81,4.19,22.81,3.58-2,5.83-1.42C223.17,230.86,225.83,214.15,225.85,208.6Z" fill="#7068fc"></path><path d="M235.31,122.94s4.75,16.17,8.92,27.88L232,155.28s-11.93-23-13.8-27.89Z" fill="#7068fc"></path><path d="M235.31,122.94s4.75,16.17,8.92,27.88L232,155.28s-11.93-23-13.8-27.89Z" opacity="0.08"></path><path d="M152.09,119s-5,19.26-2.87,33.78l10.63,2.3s8.05-28.75,9.78-32.34Z" fill="#7068fc"></path><path d="M152.09,119s-5,19.26-2.87,33.78l10.63,2.3s8.05-28.75,9.78-32.34Z" fill="#fff" opacity="0.46"></path><polygon points="199.77 51.99 199.05 70.03 209.02 69.72 205.54 56.72 199.77 51.99" fill="#7068fc"></polygon><polygon points="199.77 51.99 199.05 70.03 209.02 69.72 205.54 56.72 199.77 51.99" fill="#fff" opacity="0.46"></polygon><path d="M206.37,59.46a17.51,17.51,0,0,0-6.7-3.89s3.81,5.62,7.79,8.43Z" opacity="0.08"></path><path d="M222.53,131.93c5.33-2.23,12-7.44,17.38-9.52-.54-5.75-2-8.34-1.61-13.85,2-29.6-20.26-37-20.26-37s-8.52,10,0,44.75C219.37,121.74,220.9,127,222.53,131.93Z" fill="#24285b"></path><path d="M226.68,134.89l-.08,0a49.5,49.5,0,0,1-5.68,1.61c-6.6,1.37-13.5,1.08-20.2.65q-6-.39-12.08-.83l-3.49-.27c-3.73-.31-8.36-.66-12-2.4-.23-.1-.44-.22-.66-.33-2.18-5.48-4.44-11.72-6.22-17.9-2.73-9.5-4.29-18.87-2.66-25.21,2-7.76,8.8-12.58,15.93-15.55,1-.39,1.88-.75,2.83-1.09a0,0,0,0,0,0,0A70.64,70.64,0,0,1,199.05,70l10-.32C242,71.89,234.09,111.82,226.68,134.89Z" fill="#7068fc"></path><path d="M210.31,46.6s1.3,6.28.73,10.63A3.21,3.21,0,0,1,207.41,60a7.13,7.13,0,0,1-4.58-2.48c-1.34-1.38-3.49-1.58-4.82-3a6.58,6.58,0,0,1-1.32-2.42,18.62,18.62,0,0,1-.95-4.43A6.09,6.09,0,0,1,196.82,43a5.23,5.23,0,0,1,2.4-1.39C202.89,40.5,209.61,42.12,210.31,46.6Z" fill="#24285b"></path><path d="M204.64,173.75a5.37,5.37,0,0,1-4.93-1c-.67-11.22-15.39-19.63-18.71-21.39l-.66-.34c-1.24-2.54-5.91-14.22-7.16-17.35-.23-.1-.44-.22-.66-.33-2.18-5.48-4.44-11.72-6.22-17.9a72.56,72.56,0,0,1,1.51-15.93c1.55-6.69,4.6-12.92,7.62-19.08.45-.9.9-1.82,1.44-2.69a20.77,20.77,0,0,1,10,13.21,41.52,41.52,0,0,1,.55,11.09c-.4,10.84-.58,22,1,32.75.07.52.15,1,.24,1.55A75.1,75.1,0,0,0,192.4,151c.26.7.53,1.4.82,2.09a57.91,57.91,0,0,0,3.63,7.32c2.52,4.24,5.61,8.18,7.54,12.73C204.48,173.33,204.56,173.55,204.64,173.75Z" opacity="0.08"></path><path d="M171.74,78.28s-19.94,22-22.24,44.27l22.62,4.6s15.71-30.28,11.69-40.05S175.18,76.75,171.74,78.28Z" fill="#24285b"></path><path d="M210.1,49.12c.79,3.65.15,7.92-1.82,8.34s-4.51-3.17-5.3-6.82.5-6,2.47-6.39S209.32,45.47,210.1,49.12Z" fill="#ffd200"></path><path d="M159.85,155s2.16,7.9.36,7.33a5.36,5.36,0,0,1-2.73-2.3s.86,6.61-1.94,6.61-6.83-2.73-7.55-4,1.23-10,1.23-10l10.49,2.58" fill="#24285b"></path><path d="M226.69,134.41c0,.17-.05.34-.09.51a104.47,104.47,0,0,1-4.94,18.39c-.48.14-1,.26-1.54.36-7.05,1.45-18.2.53-26.9-.59-7.3-1-12.88-2.05-12.88-2.05-1.24-2.54-5.91-14.22-7.16-17.35-.21-.5-.32-.78-.32-.78a107,107,0,0,0,15.54,1.9A327.78,327.78,0,0,0,226.69,134.41Z" fill="#24285b"></path><path d="M232,155.28s2.3,9.72,4.5,8.86,1.73-3.93,1.73-3.93,1.15,8.34,3.35,8.43a6.33,6.33,0,0,0,6.23-5.08c.67-3.54-3.59-12.74-3.59-12.74Z" fill="#24285b"></path><path d="M177.5,76.8a9.77,9.77,0,0,0-.63,1c-.27-.16-.54-.3-.82-.44Z" opacity="0.08"></path><rect x="274.99" y="145.44" width="68.88" height="43.83" fill="#e6e6e6"></rect><circle cx="309.97" cy="166.18" r="16.17" opacity="0.08"></circle><path d="M310,150v16.17l15.84-3.29S323.6,149.9,310,150Z" fill="#fff" opacity="0.46"></path><path d="M310,166.18l-9,13.44s9.07,6.9,19.56-1.21c0,0,7.19-5.2,5.27-15.52Z" opacity="0.08"></path><rect x="260.13" y="58.55" width="66.38" height="53.11" fill="#e6e6e6"></rect><rect x="270.86" y="66.38" width="44.42" height="12.68" fill="#fff" opacity="0.46"></rect><rect x="298.78" y="66.38" width="16.49" height="12.68" opacity="0.08"></rect><rect x="270.86" y="87.03" width="44.42" height="5.04" fill="#c9c9c9"></rect><rect x="270.86" y="98.45" width="44.42" height="5.04" fill="#c9c9c9" opacity="0.57"></rect></svg>